<?xml version="1.0" encoding="UTF-8"?>
<!DOCTYPE svg PUBLIC "-//W3C//DTD SVG 1.1//EN" "http://www.w3.org/Graphics/SVG/1.1/DTD/svg11.dtd">
<!-- Creator: CorelDRAW X7 -->
<svg xmlns="http://www.w3.org/2000/svg" xml:space="preserve" width="603px" height="777px" version="1.1" style="shape-rendering:geometricPrecision; text-rendering:geometricPrecision; image-rendering:optimizeQuality; fill-rule:evenodd; clip-rule:evenodd"
viewBox="0 0 603 777"
 xmlns:xlink="http://www.w3.org/1999/xlink">
 <defs>
  <style type="text/css">
   <![CDATA[
    .fil1 {fill:#191717}
    .fil4 {fill:#89C839}
    .fil0 {fill:red}
    .fil3 {fill:#006633;fill-rule:nonzero}
    .fil2 {fill:red;fill-rule:nonzero}
   ]]>
  </style>
 </defs>
 <g id="Layer_x0020_1">
  <metadata id="CorelCorpID_0Corel-Layer"/>
  <g id="_556247608">
   <g>
    <polygon class="fil0" points="284,48 235,49 274,79 259,127 300,97 339,126 325,79 362,48 315,48 299,0 "/>
    <path class="fil1" d="M318 460l31 0c-2,-137 10,-279 165,-319l0 -56c-208,61 -198,187 -196,375z"/>
    <path class="fil1" d="M280 462l-32 0c2,-138 -10,-280 -164,-320l0 -56c208,62 197,188 196,376z"/>
   </g>
   <g>
    <path class="fil2" d="M47 547l0 32c0,1 -1,1 -1,2 0,0 -1,0 -1,1 -1,0 -2,0 -3,0 -2,0 -3,1 -5,1 -2,0 -3,-1 -5,-1 -1,0 -2,0 -3,0 0,-1 -1,-1 -1,-1 0,-1 -1,-1 -1,-2l0 -32 -25 -51c-1,-2 -2,-4 -2,-5 0,-1 0,-1 1,-2 0,0 1,-1 3,-1 1,0 3,0 6,0 2,0 4,0 5,0 1,0 3,0 3,1 1,0 2,0 2,1 0,0 1,1 1,1l10 23c1,3 2,5 3,7 1,3 2,5 3,8l1 0c1,-2 1,-5 2,-7 1,-3 2,-5 3,-7l10 -23c1,-1 1,-2 1,-2 1,-1 1,-1 2,-1 1,-1 2,-1 3,-1 1,0 3,0 5,0 3,0 5,0 6,0 2,0 3,1 3,1 1,1 1,1 1,2 0,1 -1,3 -2,5l-25 51z"/>
    <path class="fil2" d="M119 547c0,-3 0,-6 -1,-8 0,-3 -1,-5 -2,-7 -1,-2 -3,-4 -5,-5 -2,-1 -5,-2 -8,-2 -2,0 -5,1 -7,2 -2,1 -3,2 -5,4 -1,2 -2,4 -3,7 0,3 -1,6 -1,9 0,3 1,6 1,9 1,3 2,5 3,7 1,2 3,3 5,5 2,1 4,1 7,1 3,0 5,0 7,-1 2,-1 4,-3 5,-5 2,-1 3,-4 3,-6 1,-3 1,-6 1,-10zm19 0c0,5 -1,10 -2,15 -2,4 -4,8 -7,11 -3,4 -7,6 -11,8 -4,2 -10,3 -16,3 -5,0 -10,-1 -14,-3 -5,-1 -8,-4 -11,-7 -3,-3 -5,-6 -6,-11 -2,-4 -2,-9 -2,-15 0,-6 0,-11 2,-15 1,-5 4,-9 7,-12 3,-3 6,-6 11,-7 4,-2 9,-3 15,-3 6,0 11,1 15,2 4,2 8,4 11,7 2,3 4,7 6,11 1,5 2,10 2,16z"/>
    <path class="fil2" d="M213 580c0,0 0,1 0,1 0,0 -1,1 -1,1 -1,0 -2,0 -3,0 -1,0 -2,1 -3,1 -2,0 -3,-1 -4,-1 -1,0 -2,0 -3,0 0,0 -1,-1 -1,-1 0,0 0,-1 0,-1l0 -8c-4,4 -7,7 -11,9 -4,2 -8,3 -12,3 -4,0 -8,-1 -11,-2 -3,-2 -5,-4 -7,-6 -2,-3 -3,-6 -4,-9 -1,-3 -1,-8 -1,-12l0 -40c0,0 0,-1 0,-1 1,-1 1,-1 2,-1 0,0 1,-1 3,-1 1,0 2,0 4,0 2,0 3,0 4,0 1,0 2,1 3,1 1,0 1,0 2,1 0,0 0,1 0,1l0 37c0,3 0,5 1,7 0,2 1,4 2,5 1,1 2,2 3,3 1,1 3,1 5,1 2,0 4,-1 7,-3 2,-1 5,-4 7,-7l0 -43c0,0 0,-1 1,-1 0,-1 0,-1 1,-1 1,0 2,-1 3,-1 1,0 3,0 4,0 2,0 4,0 5,0 1,0 2,1 2,1 1,0 2,0 2,1 0,0 0,1 0,1l0 65z"/>
    <path class="fil2" d="M293 580c0,0 0,1 0,1 -1,0 -1,1 -2,1 0,0 -1,0 -2,0 -2,0 -3,1 -5,1 -2,0 -3,-1 -4,-1 -1,0 -2,0 -3,0 -1,0 -1,-1 -1,-1 -1,0 -1,-1 -1,-1l0 -37c0,-3 0,-6 -1,-8 0,-1 -1,-3 -2,-4 0,-1 -2,-2 -3,-3 -1,-1 -3,-1 -5,-1 -2,0 -4,1 -7,2 -2,2 -5,4 -7,8l0 43c0,0 0,1 -1,1 0,0 0,1 -1,1 -1,0 -2,0 -3,0 -1,0 -2,1 -4,1 -2,0 -4,-1 -5,-1 -1,0 -2,0 -2,0 -1,0 -2,-1 -2,-1 0,0 0,-1 0,-1l0 -65c0,0 0,-1 0,-1 0,-1 1,-1 1,-1 1,0 2,-1 3,-1 1,0 2,0 3,0 2,0 3,0 4,0 1,0 2,1 3,1 0,0 1,0 1,1 0,0 0,1 0,1l0 8c4,-4 7,-7 11,-9 4,-2 8,-3 12,-3 4,0 8,1 11,2 3,2 5,4 7,6 2,3 3,5 4,9 1,3 1,7 1,12l0 40z"/>
    <path class="fil2" d="M346 535c0,-4 -1,-6 -3,-8 -2,-2 -5,-3 -8,-3 -2,0 -4,0 -5,1 -1,0 -2,1 -3,2 -1,1 -2,2 -2,4 -1,1 -1,3 -1,4 0,3 1,6 3,8 2,2 5,3 8,3 2,0 3,-1 5,-1 1,-1 2,-1 3,-3 1,-1 2,-2 2,-3 1,-1 1,-3 1,-4zm4 51c0,-2 -1,-3 -3,-5 -1,-1 -4,-1 -7,-2l-13 0c-1,1 -2,2 -3,3 0,1 -1,1 -1,2 -1,1 -1,2 -1,2 0,1 -1,2 -1,3 0,2 2,4 4,5 3,1 6,2 10,2 3,0 5,0 7,-1 2,0 4,-1 5,-2 1,-1 2,-2 2,-3 1,-1 1,-2 1,-4zm19 -66c0,2 0,4 -1,5 0,1 -1,1 -2,1l-7 0c1,2 2,3 2,4 1,2 1,3 1,5 0,4 -1,7 -2,10 -1,3 -3,5 -5,7 -3,2 -6,4 -9,5 -3,1 -7,1 -11,1 -2,0 -4,0 -6,0 -2,-1 -3,-1 -4,-2 -1,1 -1,1 -2,2 0,1 0,2 0,3 0,1 0,3 1,3 2,1 3,2 6,2l15 1c4,0 7,0 10,1 3,1 5,2 7,4 2,1 4,3 5,6 1,2 1,5 1,7 0,4 0,7 -2,9 -1,3 -3,6 -6,8 -3,2 -6,3 -11,5 -4,1 -9,1 -14,1 -6,0 -11,0 -14,-1 -4,-1 -7,-2 -10,-3 -2,-2 -4,-4 -5,-6 -2,-2 -2,-4 -2,-7 0,-2 0,-3 1,-5 0,-1 1,-2 1,-4 1,-1 2,-2 3,-4 1,-1 3,-2 4,-3 -2,-1 -3,-3 -5,-5 -1,-1 -1,-4 -1,-6 0,-3 0,-5 2,-8 1,-2 3,-4 5,-6 -2,-2 -3,-4 -4,-6 -1,-2 -2,-5 -2,-9 0,-4 1,-7 2,-10 1,-3 3,-5 6,-7 2,-2 5,-4 8,-5 3,-1 7,-2 11,-2 2,0 4,0 6,1 2,0 3,0 5,1l20 0c1,0 2,0 2,1 1,1 1,3 1,6z"/>
    <path class="fil2" d="M427 561c0,4 -1,7 -2,10 -2,3 -4,5 -6,7 -3,2 -6,3 -9,4 -4,1 -7,2 -11,2 -3,0 -5,0 -7,-1 -2,0 -4,-1 -6,-1 -2,-1 -3,-1 -4,-2 -2,0 -2,-1 -3,-2 0,0 -1,-1 -1,-2 0,-1 -1,-3 -1,-5 0,-1 0,-2 1,-3 0,-1 0,-2 0,-2 0,-1 0,-1 1,-1 0,0 0,0 1,0 0,0 1,0 2,1 1,0 2,1 4,2 2,0 3,1 5,2 2,0 5,0 7,0 2,0 3,0 5,0 1,0 2,-1 3,-1 1,-1 2,-2 2,-3 1,-1 1,-2 1,-3 0,-2 -1,-3 -1,-4 -1,-1 -2,-2 -4,-3 -1,0 -3,-1 -5,-2 -2,0 -4,-1 -6,-2 -2,-1 -4,-2 -5,-3 -2,-1 -4,-2 -5,-4 -2,-1 -3,-3 -4,-5 -1,-3 -1,-5 -1,-8 0,-3 0,-6 2,-9 1,-2 3,-4 5,-6 2,-2 5,-4 8,-5 3,-1 7,-1 11,-1 2,0 4,0 6,0 2,1 4,1 5,1 2,1 3,1 4,2 1,0 2,1 2,1 1,1 1,1 1,1 0,1 1,1 1,2 0,0 0,1 0,1 0,1 0,2 0,3 0,2 0,3 0,3 0,1 0,2 0,2 -1,1 -1,1 -1,1 0,1 -1,1 -1,1 -1,0 -1,-1 -2,-1 -1,-1 -2,-1 -4,-2 -1,0 -3,-1 -4,-1 -2,-1 -4,-1 -7,-1 -1,0 -3,0 -4,0 -1,1 -2,1 -3,2 -1,0 -1,1 -2,2 0,1 0,2 0,3 0,1 0,2 1,3 1,1 2,2 4,3 1,1 3,2 5,2 2,1 4,2 6,3 2,0 4,1 6,2 1,1 3,3 5,4 1,2 2,4 3,6 1,2 2,4 2,7z"/>
    <path class="fil2" d="M477 573c0,2 0,4 -1,5 0,1 0,2 -1,3 0,0 -1,0 -2,1 0,0 -1,0 -2,1 -2,0 -3,0 -4,0 -2,0 -3,1 -4,1 -4,0 -7,-1 -10,-2 -2,-1 -4,-2 -6,-4 -2,-2 -3,-4 -4,-7 -1,-3 -1,-7 -1,-11l0 -33 -8 0c-1,0 -2,0 -2,-1 -1,-1 -1,-3 -1,-6 0,-1 0,-3 0,-4 1,-1 1,-1 1,-2 0,0 0,-1 1,-1 0,0 1,0 1,0l8 0 0 -15c0,0 0,-1 0,-1 0,0 1,-1 2,-1 0,0 1,-1 2,-1 2,0 3,0 5,0 2,0 3,0 4,0 1,0 2,1 3,1 1,0 1,1 1,1 1,0 1,1 1,1l0 15 14 0c0,0 1,0 1,0 1,0 1,1 1,1 0,1 1,1 1,2 0,1 0,3 0,4 0,3 0,5 -1,6 0,1 -1,1 -2,1l-14 0 0 31c0,3 0,6 2,8 1,1 3,2 6,2 0,0 1,0 2,0 1,0 2,0 2,-1 1,0 1,0 2,0 0,0 0,0 1,0 0,0 0,0 1,0 0,0 0,0 0,1 0,0 1,1 1,2 0,1 0,2 0,3z"/>
    <path class="fil2" d="M526 552l-7 0c-3,0 -6,0 -8,1 -2,0 -4,1 -5,2 -1,1 -2,2 -3,3 0,1 -1,3 -1,4 0,3 1,5 3,7 2,1 4,2 7,2 3,0 5,-1 7,-2 2,-1 4,-3 7,-6l0 -11zm17 28c0,1 0,1 0,1 -1,1 -2,1 -3,1 -1,0 -2,1 -4,1 -2,0 -4,-1 -5,-1 -1,0 -2,0 -2,-1 0,0 -1,0 -1,-1l0 -5c-2,3 -5,5 -9,6 -3,2 -7,3 -11,3 -3,0 -7,-1 -9,-2 -3,-1 -6,-2 -8,-4 -2,-1 -4,-4 -5,-6 -1,-3 -1,-6 -1,-9 0,-4 0,-7 2,-10 1,-3 3,-5 6,-7 3,-2 7,-3 11,-4 5,-1 10,-1 15,-1l7 0 0 -4c0,-2 -1,-4 -1,-5 0,-2 -1,-3 -2,-4 -1,-1 -2,-2 -4,-3 -1,0 -3,0 -6,0 -3,0 -5,0 -8,1 -2,0 -4,1 -6,2 -2,1 -3,2 -5,2 -1,1 -2,1 -3,1 0,0 -1,0 -1,0 0,-1 -1,-1 -1,-2 0,0 -1,-1 -1,-2 0,-1 0,-2 0,-3 0,-2 0,-3 0,-4 1,0 1,-1 2,-2 1,-1 2,-1 3,-2 2,-1 4,-2 6,-3 3,0 5,-1 8,-1 2,-1 5,-1 8,-1 5,0 9,0 13,1 4,1 6,3 9,5 2,2 4,5 5,8 1,3 1,7 1,11l0 44z"/>
    <path class="fil2" d="M603 521c0,2 0,3 0,4 0,1 0,2 -1,3 0,1 0,1 0,1 -1,0 -1,1 -2,1 0,0 0,0 -1,-1 0,0 -1,0 -1,0 -1,0 -2,-1 -2,-1 -1,0 -2,0 -3,0 -1,0 -2,0 -3,1 -1,0 -2,1 -3,2 -1,0 -2,2 -3,3 -2,1 -3,3 -4,5l0 41c0,0 0,1 -1,1 0,0 0,1 -1,1 -1,0 -2,0 -3,0 -1,0 -3,1 -4,1 -2,0 -4,-1 -5,-1 -1,0 -2,0 -2,0 -1,0 -2,-1 -2,-1 0,0 0,-1 0,-1l0 -65c0,0 0,-1 0,-1 0,-1 1,-1 1,-1 1,0 2,-1 3,-1 1,0 2,0 3,0 2,0 3,0 4,0 1,0 2,1 3,1 0,0 1,0 1,1 0,0 0,1 0,1l0 8c2,-2 3,-4 5,-6 1,-1 3,-3 4,-4 2,-1 3,-1 4,-2 2,0 3,0 4,0 1,0 2,0 2,0 1,0 2,0 3,0 0,1 1,1 2,1 0,0 1,0 1,1 0,0 0,0 0,0 1,1 1,1 1,2 0,0 0,1 0,2 0,1 0,2 0,4z"/>
   </g>
   <path class="fil3" d="M37 744c4,-9 10,-19 16,-31l18 -34c6,-11 10,-20 14,-28 6,0 10,0 13,0 4,0 8,0 12,0l10 28 21 57 3 8 -10 0c-3,0 -6,0 -12,0 -1,-4 -3,-10 -5,-16 -3,-7 -5,-13 -6,-17l-36 0c-5,11 -10,22 -15,33l-11 0c-3,0 -6,0 -12,0zm44 -47l26 0 -11 -32 -5 12 -10 20zm77 61c10,4 19,5 26,5 3,0 6,0 8,-1 3,-1 5,-2 6,-3 2,-1 3,-3 4,-5 1,-3 2,-5 2,-8 1,-3 1,-8 1,-14 -2,2 -3,4 -5,6 -1,1 -3,2 -5,3 -2,1 -4,2 -7,3 -2,0 -5,1 -8,1 -4,0 -8,-1 -11,-2 -4,-1 -7,-3 -10,-6 -3,-3 -5,-6 -6,-10 -2,-4 -2,-8 -2,-13 0,-6 1,-12 3,-17 3,-6 6,-11 11,-14 4,-4 9,-6 14,-8 6,-1 11,-2 18,-2 3,0 7,0 12,1 4,0 10,1 18,2l-2 22 -1 27 -1 24c0,3 0,6 -1,8 0,3 -1,5 -3,7 -1,2 -2,4 -4,6 -2,1 -4,2 -6,3 -2,1 -5,2 -9,3 -3,0 -7,1 -10,1 -5,0 -9,0 -14,-1 -6,-1 -11,-2 -18,-3l0 -15zm49 -70c-4,0 -8,-1 -11,-1 -6,0 -11,1 -15,3 -3,3 -6,6 -8,10 -2,4 -4,8 -4,13 0,3 1,6 2,9 2,3 4,5 6,7 3,1 6,2 9,2 3,0 5,0 7,-1 2,-1 4,-2 5,-3 2,-2 3,-4 4,-6 2,-2 3,-5 3,-7 1,-3 1,-7 1,-11 1,-4 1,-9 1,-15zm33 56l2 -32 1 -19c0,-4 0,-8 0,-12 0,-1 0,-3 0,-6 4,0 7,0 9,0 2,0 5,0 9,0l0 9c2,-2 3,-4 4,-5 1,-1 3,-2 4,-3 2,-1 4,-2 5,-2 2,-1 4,-1 6,-1 2,0 4,0 6,1 0,4 0,9 0,16 -2,-1 -5,-1 -7,-1 -3,0 -5,0 -7,1 -2,1 -4,2 -5,4 -2,1 -3,3 -4,5 -1,2 -2,5 -2,8 -1,2 -1,6 -1,12 0,6 -1,11 -1,17 0,2 1,5 1,8 -4,0 -7,0 -10,0 -3,0 -6,0 -10,0zm91 -71c6,0 11,1 15,3 5,1 9,3 13,6 3,4 5,7 7,12 2,4 3,9 3,14 0,5 -1,10 -3,15 -2,4 -4,9 -8,12 -3,4 -7,6 -12,8 -5,2 -11,3 -16,3 -6,0 -11,-1 -15,-3 -5,-1 -9,-4 -12,-7 -4,-3 -6,-7 -8,-11 -2,-5 -3,-9 -3,-14 0,-5 1,-10 3,-15 1,-4 4,-8 7,-12 4,-3 8,-6 13,-8 5,-2 11,-3 16,-3zm0 14c-4,0 -7,1 -10,3 -3,2 -6,5 -7,9 -2,3 -2,8 -2,12 0,4 0,7 2,11 1,3 3,5 6,7 2,2 6,3 10,3 4,0 7,-1 10,-3 3,-2 5,-5 7,-9 1,-4 2,-8 2,-12 0,-4 0,-8 -2,-11 -1,-3 -3,-5 -5,-7 -3,-2 -7,-3 -11,-3zm92 43c-1,2 -2,7 -3,14 -4,0 -7,1 -9,1 -2,0 -4,1 -6,1 -3,0 -6,-1 -9,-1 -3,-1 -5,-2 -7,-4 -1,-1 -3,-3 -3,-5 -1,-3 -1,-5 -1,-7 0,-1 0,-2 0,-3 0,-1 0,-4 1,-9l1 -29 -10 0c1,-2 1,-7 1,-13l10 0c1,-2 1,-7 1,-13l8 -2c2,0 5,-1 10,-2 -1,6 -1,12 -1,17l17 0c0,7 0,11 0,13l-17 0c-1,19 -2,30 -2,33 0,2 1,5 1,6 1,2 2,3 3,3 1,1 3,1 5,1 1,0 2,0 3,0 1,0 4,-1 7,-1zm71 -1c-1,2 -2,7 -3,14 -5,1 -9,2 -12,2 -4,0 -7,1 -10,1 -6,0 -12,-1 -16,-2 -5,-1 -9,-4 -13,-7 -3,-3 -6,-7 -8,-11 -1,-5 -2,-10 -2,-15 0,-5 1,-11 3,-16 2,-5 5,-9 8,-13 4,-3 8,-5 12,-7 5,-1 9,-2 14,-2 5,0 9,1 13,2 4,1 8,3 11,6 3,2 5,5 6,9 2,4 3,8 3,12 0,3 -1,5 -1,7l-50 0c0,2 0,3 0,4 0,3 1,6 2,8 1,3 2,5 4,7 2,2 4,3 7,4 3,1 6,1 8,1 4,0 7,0 11,-1 3,-1 8,-2 13,-3zm-44 -28l32 0c0,-2 -1,-3 -1,-5 0,-1 0,-2 -1,-3 0,-1 -1,-3 -2,-4 0,-1 -1,-2 -2,-2 -1,-1 -3,-1 -4,-2 -2,0 -3,0 -5,0 -2,0 -4,0 -5,0 -2,1 -4,2 -5,3 -2,1 -3,3 -4,4 -1,1 -2,3 -2,4 0,1 -1,3 -1,5zm114 27c0,2 -1,4 -1,7 -1,2 -1,5 -2,8 -6,2 -12,3 -19,3 -3,0 -7,-1 -10,-2 -4,0 -7,-1 -10,-3 -3,-2 -5,-4 -7,-7 -3,-3 -4,-6 -5,-10 -2,-4 -2,-9 -2,-13 0,-6 1,-11 3,-16 1,-6 4,-10 8,-13 3,-4 7,-6 12,-7 4,-1 9,-2 14,-2 3,0 6,0 9,1 3,0 7,1 11,2l1 15c-7,-3 -12,-4 -17,-4 -4,0 -6,1 -9,2 -3,1 -5,2 -7,5 -2,2 -4,5 -5,7 0,3 -1,6 -1,9 0,5 1,8 2,12 2,3 4,5 7,7 3,2 7,2 11,2 2,0 5,0 8,0 3,-1 6,-2 9,-3z"/>
   <path class="fil4" d="M448 631c1,-4 3,-8 5,-11 1,-1 2,-3 3,-4 1,0 1,-1 2,-1 0,-1 2,-2 2,-2 -13,-4 -24,-4 -34,1 -9,3 -17,11 -20,22 -2,5 -2,10 0,15 0,1 1,3 1,4l4 -6c1,-2 2,-4 4,-6 4,-6 10,-13 17,-18l4 -3c1,0 1,0 1,0 1,-1 4,-2 6,-3l-7 4c-4,3 -9,7 -12,11 -2,3 -5,7 -7,10 -2,3 -6,9 -7,12l3 1c6,2 11,2 17,0 8,-4 14,-12 16,-21 1,-2 1,-3 2,-5z"/>
  </g>
 </g>
</svg>
